# xmcd
#
# Track frame offsets: 
#        150
#        20276
#        38395
#        56388
#        73454
#        89870
#        107936
#        127629
#        147886
#        162170
#        184945
#
# Disc length: 2722 seconds
#
# Revision: 4
# Processed by: cddbd v1.5.2PL0 Copyright (c) Steve Scherf et al.
# Submitted via: ExactAudioCopyFreeDBPlugin 1.0
#
DISCID=930aa00b
DTITLE=Moyet, Alison - Hometime
DYEAR=2002
DGENRE=Rock
TTITLE0=Yesterday's Flame
TTITLE1=Should I Fell That It's Over
TTITLE2=More
TTITLE3=Hometime
TTITLE4=Mary, Don't Keep Me Waiting
TTITLE5=Say It
TTITLE6=Ski
TTITLE7=If You Don't Come Back To Me
TTITLE8=Do You Ever Wonder
TTITLE9=The Train I Ride
TTITLE10=You Don't Have To Go
EXTD=YEAR: 2002
EXTT0=
EXTT1=
EXTT2=
EXTT3=
EXTT4=
EXTT5=
EXTT6=
EXTT7=
EXTT8=
EXTT9=
EXTT10=
PLAYORDER=
